<svg width="45" height="45" viewBox="0 0 45 45" fill="none" xmlns="http://www.w3.org/2000/svg">
<path d="M22.5 42.1875C17.2786 42.1875 12.271 40.1133 8.57883 36.4212C4.88671 32.729 2.8125 27.7214 2.8125 22.5C2.8125 17.2786 4.88671 12.271 8.57883 8.57883C12.271 4.88671 17.2786 2.8125 22.5 2.8125C27.7214 2.8125 32.729 4.88671 36.4212 8.57883C40.1133 12.271 42.1875 17.2786 42.1875 22.5C42.1875 27.7214 40.1133 32.729 36.4212 36.4212C32.729 40.1133 27.7214 42.1875 22.5 42.1875ZM22.5 45C28.4674 45 34.1903 42.6295 38.4099 38.4099C42.6295 34.1903 45 28.4674 45 22.5C45 16.5326 42.6295 10.8097 38.4099 6.5901C34.1903 2.37053 28.4674 0 22.5 0C16.5326 0 10.8097 2.37053 6.5901 6.5901C2.37053 10.8097 0 16.5326 0 22.5C0 28.4674 2.37053 34.1903 6.5901 38.4099C10.8097 42.6295 16.5326 45 22.5 45V45Z" fill="white"/>
<path d="M25.1157 18.5287L18.675 19.3359L18.4444 20.4047L19.71 20.6381C20.5369 20.835 20.7 21.1331 20.52 21.9572L18.4444 31.7109C17.8988 34.2337 18.7397 35.4206 20.7169 35.4206C22.2497 35.4206 24.03 34.7119 24.8372 33.7388L25.0847 32.5687C24.5222 33.0637 23.701 33.2606 23.1554 33.2606C22.3819 33.2606 22.1007 32.7178 22.3004 31.7616L25.1157 18.5287ZM25.3125 12.6562C25.3125 13.4022 25.0162 14.1175 24.4888 14.645C23.9613 15.1724 23.246 15.4688 22.5 15.4688C21.7541 15.4688 21.0388 15.1724 20.5113 14.645C19.9839 14.1175 19.6875 13.4022 19.6875 12.6562C19.6875 11.9103 19.9839 11.195 20.5113 10.6675C21.0388 10.1401 21.7541 9.84375 22.5 9.84375C23.246 9.84375 23.9613 10.1401 24.4888 10.6675C25.0162 11.195 25.3125 11.9103 25.3125 12.6562Z" fill="white"/>
</svg>
